<svg width="33" height="58" viewBox="0 0 33 58" fill="none" xmlns="http://www.w3.org/2000/svg">
<path d="M30.7912 5.58508C30.8298 8.81408 28.4636 6.83392 28.4959 8.64756C28.5107 9.47644 29.7665 10.2158 30.4461 11.2864C31.2535 12.5584 31.4879 14.1899 31.2281 15.4798C31.0592 16.3188 30.7168 17.1635 30.258 17.9353C29.0117 20.032 27.0256 21.1811 23.857 20.9765C20.8458 20.7821 17.8126 20.8026 14.7923 20.6812C13.7035 20.6375 10.5042 19.7642 10.4084 20.3021C10.2664 21.0992 10.8236 21.6597 11.681 21.8749C13.1855 22.2526 14.7354 22.6225 16.2979 22.7381C19.3055 22.9606 22.348 22.9091 25.3503 23.1588C26.9392 23.291 28.5719 23.6598 30.0108 24.2013C32.384 25.0942 33.0034 26.6577 32.765 29.0845C32.5353 31.4214 31.1295 33.0234 28.5425 34.101C27.9645 34.3418 27.4145 34.6292 26.8804 34.9264C25.975 35.4302 26.0404 36.0184 27.0299 36.3856C27.6059 36.5995 28.1995 36.7844 28.7779 36.9945C31.458 37.9679 33.2194 40.7442 32.547 42.9269C32.2107 44.0184 30.4935 44.4942 29.3729 43.8154C27.6592 42.7775 25.8065 41.9691 23.5942 41.7932C21.786 41.6495 20.2477 42.0872 19.0766 43.1755C18.846 43.3898 18.6422 43.8126 18.7648 44.0156C18.9079 44.2527 19.4047 44.4522 19.7798 44.4934C20.4998 44.5727 21.2428 44.548 21.9752 44.5329C26.6227 44.4368 29.6109 46.0916 31.1888 49.507C33.0463 53.5278 29.0449 56.6865 24.9224 57.3451C22.0698 57.8009 19.634 57.0059 17.3998 55.7209C15.3017 54.5142 13.5829 53.0205 11.9784 51.3108C13.5146 51.3655 14.9374 51.3572 16.341 51.4805C18.2388 51.6474 20.1239 51.9057 22.0094 52.1483C22.3715 52.1949 22.7251 52.3276 23.0576 52.4589C23.9885 52.8264 23.9984 53.2651 23.186 53.7887C22.7177 53.9204 22.1049 54.2442 22.4952 54.576C22.9096 54.8978 23.2222 54.927 23.6179 55.0141C23.9477 55.0867 24.3321 55.0604 24.681 55.0195C25.6963 54.9005 26.6651 54.6628 27.0891 53.8453C27.5176 53.0194 26.9886 52.3391 26.3595 51.7126C24.6829 50.0432 22.2936 49.6143 19.7615 49.4625C16.1864 49.2483 12.6071 49.0728 9.03557 48.8285C8.22863 48.7733 7.41644 48.5594 6.65808 48.3201C4.72353 47.7097 4.01536 46.3376 4.75118 44.8289C5.95335 45.0941 7.13222 45.4448 8.35247 45.6046C11.019 45.9539 13.4806 45.5228 15.5675 44.1217C16.6067 43.424 17.1732 42.5502 16.9437 41.4421C16.8183 40.837 16.3613 40.6501 15.723 41.0043C15.0827 41.3596 14.474 41.7559 13.8966 42.1719C12.2963 43.325 10.4347 43.642 8.35545 43.2435C6.14056 42.8189 4.14826 42.0929 2.99346 40.4546C1.73176 38.6647 2.53582 36.2133 4.88012 34.5671C5.36211 34.2287 5.90688 33.9443 6.29391 33.7122C7.21356 34.255 8.00589 34.7584 8.84719 35.2062C9.37183 35.4854 9.93638 35.4767 10.2944 34.9871C10.6558 34.4927 10.5678 34.0502 9.98605 33.661C9.44907 33.3017 8.86607 32.9533 8.45954 32.5129C7.37141 31.3341 7.62767 29.7612 8.99856 28.7772C9.14755 28.6703 9.38351 28.5794 9.57997 28.5784C11.8898 28.5664 14.2008 28.542 16.5091 28.5909C17.3781 28.6093 18.2786 28.7236 19.0989 28.9431C21.1076 29.4805 22.2342 30.9289 21.9266 32.4169C21.6445 33.7813 19.9982 34.8038 17.9267 34.8931C17.5518 34.9092 17.1674 34.8619 16.8016 34.9098C15.9142 34.9325 16.0845 35.6641 16.2411 35.8119C17.6853 37.175 19.9593 37.516 21.9331 36.695C26.5916 34.7572 26.9492 29.8256 22.5999 27.5363C20.9873 26.6876 19.1903 26.2174 17.2692 26.1419C14.9261 26.0499 12.5716 26.1274 10.2293 26.0281C7.96198 25.932 5.93366 25.3003 4.40672 23.9301C3.22315 22.8681 2.97165 21.6467 3.5995 20.3258C4.80591 17.7876 7.94509 16.4741 11.6807 17.0324C14.2034 17.4094 16.6783 17.9939 19.2108 18.3119C20.7995 18.5113 22.4767 18.5281 24.076 18.3789C26.6531 18.1384 28.1882 16.871 28.7429 14.9088C29.3021 12.9306 28.6534 11.2576 26.55 10.0004C24.8159 8.96397 22.7856 8.50818 20.6559 8.2822C18.3375 8.03622 16.0446 8.11728 13.7988 8.66496C12.5215 9.04067 12.387 9.69307 12.462 10.0178C12.5118 10.2337 13.1733 10.5005 13.5691 10.5086C15.4443 10.547 17.3273 10.4319 19.1979 10.5104C21.1851 10.5937 23.1852 10.7653 24.7484 11.927C25.8864 12.7727 26.3489 13.8455 25.9066 14.7136C25.4244 15.66 24.1696 16.2683 22.5629 16.1983C21.4067 16.148 20.2509 15.9903 19.1127 15.8119C16.6847 15.4312 14.2771 14.9685 11.8428 14.6163C10.8033 14.4659 9.71788 14.5076 8.62225 14.4607C7.52045 12.2294 6.87058 10.8872 9.73377 8.81332C12.3816 6.89537 15.5179 5.55657 19.2813 5.62911C20.5753 5.65405 21.8522 6.09497 23.145 6.31718C24.2317 6.50397 25.3279 6.65975 26.4256 6.80299C26.6257 6.82909 27.5498 6.98181 27.3006 6.64124C26.906 6.17203 26.6529 5.70886 26.2235 5.38855C24.2744 3.9345 21.8657 3.32567 19.2133 3.2208C18.8569 3.20671 18.499 3.21515 18.1418 3.21082C18.1081 3.21042 18.0748 3.1932 17.9432 3.15627C18.9062 1.97352 20.0978 1.02231 21.8586 0.688382C24.1986 0.244606 26.4316 0.597149 28.4323 1.61657C30.4496 2.64447 30.7663 3.49266 30.7912 5.58508ZM4.25471 26.714C3.71396 26.4689 3.37519 26.499 2.92976 26.7876C0.593677 28.301 -0.0925006 30.3186 0.00971646 32.5648C0.0458751 33.3593 0.354822 34.0919 1.23699 34.5717C1.99241 34.0714 2.65842 33.5494 3.42652 33.1444C4.20889 32.7318 5.09173 32.4344 5.9637 32.0728C5.60049 30.5238 6.17541 29.1116 7.25141 27.8195C6.21355 27.4449 5.19027 27.138 4.25471 26.714Z" fill="url(#paint0_linear_7_104)"/>
<defs>
<linearGradient id="paint0_linear_7_104" x1="16.4062" y1="0.5" x2="16.4063" y2="57.4747" gradientUnits="userSpaceOnUse">
<stop stop-color="#F98F9B"/>
<stop offset="1" stop-color="#FAACF0"/>
</linearGradient>
</defs>
</svg>
