<svg width="34" height="58" viewBox="0 0 34 58" fill="none" xmlns="http://www.w3.org/2000/svg">
<path d="M3.02576 5.73242C3.08889 3.80686 3.33384 2.93714 4.24653 2.18629C7.25142 -0.285801 12.5544 0.00359607 15.0338 2.7691C15.1371 2.88433 15.2251 3.00823 15.3576 3.17505C11.6858 3.28233 8.32446 3.79815 6.29278 6.46029C6.32471 6.56321 6.35665 6.66612 6.38858 6.76903C7.09849 6.76903 7.82253 6.83841 8.51437 6.7496C9.21198 6.66004 9.89955 6.45363 10.5535 6.22861C13.179 5.32509 15.7944 5.41567 18.3704 6.29869C20.4199 7.00121 22.3712 7.85245 23.8998 9.19387C25.2719 10.3979 25.7484 11.754 24.9947 13.3202C24.8059 13.7124 24.6697 14.1204 24.5079 14.5248C20.3232 14.2826 16.5098 15.6511 12.5009 16.0755C11.6004 16.1708 10.6566 16.2197 9.76519 16.1151C7.78813 15.8833 6.83391 14.2789 7.78784 12.8832C8.7534 11.4704 10.389 10.8095 12.3034 10.6957C14.6788 10.5544 17.0691 10.5645 19.4535 10.5295C20.0249 10.5211 20.6155 10.5758 20.7724 10.0003C20.9256 9.43866 20.6377 9.00408 19.9424 8.82566C15.5986 7.71104 11.3672 7.87253 7.40505 9.75678C4.98009 10.91 4.13603 12.8272 4.81849 15.0288C5.47164 17.1359 7.20044 18.271 10.0955 18.4926C13.166 18.7277 16.0772 18.0723 18.9927 17.4685C20.9076 17.0718 22.8168 16.7296 24.8076 17.0741C27.831 17.5972 30.1496 20.0922 29.6259 22.2919C29.3231 23.564 28.2755 24.4115 26.9405 25.0475C25.3209 25.8192 23.5479 26.0967 21.6597 26.0698C18.962 26.0312 16.2467 25.8809 13.601 26.4958C11.9422 26.8813 10.4744 27.5414 9.29772 28.5459C6.8198 30.6613 7.44789 34.2845 10.6002 36.2562C12.6556 37.5419 15.0262 37.4435 16.8505 35.9573C17.0738 35.7754 17.171 35.4203 17.1433 35.1577C17.1326 35.0565 16.6179 34.9485 16.3201 34.9152C15.704 34.8463 15.0633 34.8817 14.4612 34.7741C12.6872 34.4572 11.604 33.4894 11.4074 32.1262C11.2415 30.9756 12.2266 29.7013 13.7509 29.096C15.2282 28.5093 16.8169 28.5775 18.3995 28.5873C20.0349 28.5974 21.6708 28.5711 23.3057 28.5952C23.615 28.5998 23.9989 28.7017 24.2152 28.868C25.7037 30.0125 25.6449 31.8549 24.103 33.0565C23.8029 33.2903 23.4442 33.4763 23.1168 33.6886C22.5523 34.0545 22.5073 34.5146 22.8368 34.9835C23.1746 35.4642 23.7275 35.499 24.2524 35.2121C25.0755 34.7622 25.8553 34.2624 26.7185 33.7447C28.7701 34.442 30.6091 36.7494 30.5542 38.6921C30.5004 40.5977 28.8923 42.1094 26.014 42.9584C23.3741 43.7372 20.9683 43.5711 18.9052 41.8885C18.4856 41.5463 17.9877 41.2554 17.4859 40.9882C16.9258 40.6899 16.511 40.8027 16.3619 41.3598C16.0226 42.6275 16.7463 43.5674 17.9304 44.2896C20.852 46.0715 24.0385 46.0502 27.3328 45.0481C27.6223 44.9601 27.9037 44.8551 28.1856 44.7591C29.0148 45.9658 28.4455 47.6575 26.7879 48.1414C25.1058 48.6325 23.2923 48.93 21.5052 49.0837C18.3103 49.3586 15.0866 49.4161 11.8857 49.6548C10.1207 49.7865 8.55796 50.3903 7.37051 51.484C6.59568 52.1977 5.89414 52.9638 6.47139 53.9719C6.909 54.7362 8.41734 55.2053 9.8064 55.0164C10.195 54.9636 10.5446 54.7299 10.9121 54.5791C10.6856 54.3132 10.5203 53.988 10.2208 53.7926C9.41012 53.2637 9.39699 52.7118 10.4004 52.4623C11.9322 52.0814 13.5173 51.7795 15.1078 51.6179C17.0831 51.4172 19.0868 51.3937 21.3559 51.2797C20.1971 52.3272 19.2495 53.2709 18.1874 54.1248C16.2521 55.6808 14.103 56.9776 11.293 57.4013C6.3713 58.1433 1.36651 54.582 1.99086 50.7646C2.60511 47.009 6.41059 44.4234 11.1568 44.5273C11.9471 44.5446 12.7469 44.5764 13.5261 44.499C13.905 44.4613 14.3905 44.248 14.5576 43.9995C14.6817 43.8151 14.4664 43.3804 14.2378 43.1698C12.7185 41.7699 10.7224 41.4183 8.63211 41.9991C7.04741 42.4394 5.56656 43.162 4.12801 43.8721C3.07707 44.3909 1.44687 44.0212 1.10078 43.0494C0.370041 40.9973 1.94284 38.1805 4.42173 37.1423C5.07082 36.8705 5.76007 36.6597 6.42483 36.4107C7.40929 36.042 7.48802 35.4177 6.58852 34.9189C5.88055 34.5262 5.16312 34.133 4.3996 33.8167C0.527788 32.2123 0.407341 28.4157 1.20799 26.1683C1.6205 25.0103 2.84419 24.3941 4.13985 23.9276C6.66885 23.0171 9.39399 23.0638 12.0907 22.9288C14.7611 22.795 17.4283 22.5824 20.0828 22.316C20.7713 22.2469 21.4569 21.9043 22.048 21.5779C22.3814 21.3937 22.6564 20.9993 22.7045 20.6759C22.7466 20.393 22.5301 19.9519 22.2481 19.8158C22.0296 19.7104 21.5351 19.9724 21.1603 20.0634C20.2821 20.2765 19.4137 20.6219 18.5205 20.67C15.7149 20.8211 12.8986 20.8404 10.0886 20.9463C5.76373 21.1092 3.29565 19.5671 2.47467 15.9767C2.21311 14.8328 2.24869 13.6253 2.34345 12.4569C2.42712 11.4251 3.12544 10.5871 4.28677 10.0366C4.63336 9.87235 4.99471 9.70615 5.27558 9.48244C5.52783 9.28152 6.11181 8.60595 5.00532 8.2053C5.00532 8.2053 2.96264 7.65798 3.02576 5.73242ZM32.444 34.4904C34.8722 33.0436 33.3003 27.6698 30.0522 26.5108C28.8261 26.9551 27.6554 27.3794 26.4252 27.8253C27.5483 29.1189 28.023 30.5651 27.7353 31.926C29.3881 32.8262 30.898 33.6484 32.444 34.4904Z" fill="url(#paint0_linear_7_105)"/>
<defs>
<linearGradient id="paint0_linear_7_105" x1="17.2187" y1="0.5" x2="17.2187" y2="57.5" gradientUnits="userSpaceOnUse">
<stop stop-color="#F98F9B"/>
<stop offset="1" stop-color="#FAACF0"/>
</linearGradient>
</defs>
</svg>
